<svg width="40" height="40" viewBox="0 0 40 40" fill="none" xmlns="http://www.w3.org/2000/svg">
<path d="M12.546 6.66661L33.166 6.66661C33.4312 6.66661 33.6856 6.77197 33.8731 6.95951C34.0607 7.14704 34.166 7.4014 34.166 7.66661L34.166 23.9999C34.166 24.2652 34.0607 24.5195 33.8731 24.7071C33.6856 24.8946 33.4312 24.9999 33.166 24.9999L28.5527 24.9999C27.9771 24.9999 27.4112 25.149 26.9103 25.4326C26.4094 25.7162 25.9905 26.1247 25.6943 26.6183L21.1777 34.1466C20.837 34.7152 20.3004 35.1397 19.6687 35.3404C19.037 35.541 18.3537 35.5039 17.7474 35.2361C17.1411 34.9683 16.6536 34.4882 16.3765 33.886C16.0994 33.2839 16.0518 32.6013 16.2427 31.9666L17.946 26.2866C17.9907 26.1374 17.9998 25.9799 17.9728 25.8265C17.9458 25.6732 17.8834 25.5282 17.7905 25.4033C17.6976 25.2783 17.5768 25.1768 17.4377 25.1068C17.2986 25.0367 17.1451 25.0002 16.9893 24.9999L9.36435 24.9999C8.85178 25.0001 8.34609 24.8819 7.88659 24.6548C7.4271 24.4277 7.02617 24.0976 6.71498 23.6904C6.40378 23.2831 6.19071 22.8095 6.09232 22.3065C5.99393 21.8034 6.01288 21.2845 6.14768 20.7899L9.33102 9.12328C9.52323 8.41816 9.94186 7.79574 10.5225 7.35185C11.1031 6.90796 11.8135 6.66719 12.5444 6.66661L12.546 6.66661Z" stroke="#D9D6CB" stroke-width="3.125" stroke-linecap="round"/>
<path d="M28.332 6.66667L28.332 25" stroke="#D9D6CB" stroke-width="3.125" stroke-linecap="round" stroke-linejoin="round"/>
</svg>
