<svg width="45" height="45" viewBox="0 0 45 45" fill="none" xmlns="http://www.w3.org/2000/svg">
<path d="M37.5047 5.625H7.49531C7.00041 5.62868 6.52683 5.82691 6.17687 6.17687C5.82691 6.52683 5.62868 7.00041 5.625 7.49531V37.5047C5.62868 37.9996 5.82691 38.4732 6.17687 38.8231C6.52683 39.1731 7.00041 39.3713 7.49531 39.375H23.6531V26.325H19.2656V21.2203H23.6531V17.4656C23.6531 13.1063 26.3109 10.7297 30.2203 10.7297C31.5281 10.7297 32.8359 10.7297 34.1438 10.9266V15.4688H31.4578C29.3344 15.4688 28.9266 16.4813 28.9266 17.9578V21.2063H33.9891L33.3281 26.3109H28.9266V39.375H37.5047C37.9996 39.3713 38.4732 39.1731 38.8231 38.8231C39.1731 38.4732 39.3713 37.9996 39.375 37.5047V7.49531C39.3713 7.00041 39.1731 6.52683 38.8231 6.17687C38.4732 5.82691 37.9996 5.62868 37.5047 5.625Z" fill="#EEEEEE"/>
</svg>
