<svg width="51" height="52" viewBox="0 0 51 52" fill="none" xmlns="http://www.w3.org/2000/svg">
<g filter="url(#filter0_d_204_359)">
<path fill-rule="evenodd" clip-rule="evenodd" d="M16.9969 1.99875C19.1962 1.8975 19.8975 1.875 25.5 1.875C31.1025 1.875 31.8038 1.89937 34.0013 1.99875C36.1988 2.09812 37.6987 2.44875 39.0112 2.95688C40.3856 3.47625 41.6325 4.28812 42.6637 5.33812C43.7137 6.3675 44.5238 7.6125 45.0413 8.98875C45.5513 10.3013 45.9 11.8013 46.0013 13.995C46.1025 16.1981 46.125 16.8994 46.125 22.5C46.125 28.1025 46.1006 28.8037 46.0013 31.0031C45.9019 33.1969 45.5513 34.6969 45.0413 36.0094C44.5237 37.3858 43.7124 38.6329 42.6637 39.6637C41.6325 40.7137 40.3856 41.5238 39.0112 42.0413C37.6987 42.5513 36.1987 42.9 34.005 43.0013C31.8037 43.1025 31.1025 43.125 25.5 43.125C19.8975 43.125 19.1962 43.1006 16.9969 43.0013C14.8031 42.9019 13.3031 42.5513 11.9906 42.0413C10.6142 41.5237 9.36716 40.7124 8.33625 39.6637C7.28696 38.6338 6.47497 37.3873 5.95688 36.0112C5.44875 34.6987 5.1 33.1987 4.99875 31.005C4.8975 28.8019 4.875 28.1006 4.875 22.5C4.875 16.8975 4.89937 16.1962 4.99875 13.9987C5.09812 11.8013 5.44875 10.3013 5.95688 8.98875C6.47573 7.61265 7.28835 6.36621 8.33812 5.33625C9.36758 4.28719 10.6134 3.47521 11.9888 2.95688C13.3013 2.44875 14.8013 2.1 16.995 1.99875H16.9969ZM33.8344 5.71125C31.6594 5.61188 31.0069 5.59125 25.5 5.59125C19.9931 5.59125 19.3406 5.61188 17.1656 5.71125C15.1537 5.80312 14.0625 6.13875 13.335 6.42188C12.3731 6.79688 11.685 7.24125 10.9631 7.96313C10.2788 8.62885 9.75221 9.43928 9.42188 10.335C9.13875 11.0625 8.80312 12.1537 8.71125 14.1656C8.61188 16.3406 8.59125 16.9931 8.59125 22.5C8.59125 28.0069 8.61188 28.6594 8.71125 30.8344C8.80312 32.8462 9.13875 33.9375 9.42188 34.665C9.75187 35.5594 10.2788 36.3713 10.9631 37.0369C11.6288 37.7212 12.4406 38.2481 13.335 38.5781C14.0625 38.8613 15.1537 39.1969 17.1656 39.2887C19.3406 39.3881 19.9913 39.4087 25.5 39.4087C31.0087 39.4087 31.6594 39.3881 33.8344 39.2887C35.8462 39.1969 36.9375 38.8613 37.665 38.5781C38.6269 38.2031 39.315 37.7588 40.0369 37.0369C40.7212 36.3713 41.2481 35.5594 41.5781 34.665C41.8613 33.9375 42.1969 32.8462 42.2887 30.8344C42.3881 28.6594 42.4087 28.0069 42.4087 22.5C42.4087 16.9931 42.3881 16.3406 42.2887 14.1656C42.1969 12.1537 41.8613 11.0625 41.5781 10.335C41.2031 9.37313 40.7588 8.685 40.0369 7.96313C39.3711 7.27888 38.5607 6.75227 37.665 6.42188C36.9375 6.13875 35.8462 5.80312 33.8344 5.71125ZM22.8656 28.8581C24.3369 29.4706 25.9751 29.5532 27.5005 29.092C29.0259 28.6307 30.3439 27.6542 31.2293 26.3292C32.1147 25.0042 32.5126 23.4129 32.3551 21.8271C32.1976 20.2413 31.4944 18.7593 30.3656 17.6344C29.6461 16.9153 28.776 16.3646 27.8181 16.0222C26.8602 15.6797 25.8383 15.5538 24.8259 15.6537C23.8136 15.7535 22.8359 16.0766 21.9634 16.5996C21.0909 17.1227 20.3451 17.8326 19.7799 18.6785C19.2147 19.5243 18.8441 20.4849 18.6947 21.4912C18.5453 22.4974 18.6209 23.5243 18.916 24.4978C19.2111 25.4714 19.7184 26.3674 20.4014 27.1214C21.0843 27.8753 21.9259 28.4685 22.8656 28.8581ZM18.0037 15.0037C18.9882 14.0193 20.1568 13.2384 21.4431 12.7057C22.7293 12.1729 24.1078 11.8987 25.5 11.8987C26.8922 11.8987 28.2707 12.1729 29.5569 12.7057C30.8431 13.2384 32.0118 14.0193 32.9963 15.0037C33.9807 15.9882 34.7616 17.1568 35.2943 18.4431C35.8271 19.7293 36.1013 21.1078 36.1013 22.5C36.1013 23.8922 35.8271 25.2707 35.2943 26.5569C34.7616 27.8431 33.9807 29.0118 32.9963 29.9963C31.0081 31.9844 28.3116 33.1013 25.5 33.1013C22.6884 33.1013 19.9919 31.9844 18.0037 29.9963C16.0156 28.0081 14.8987 25.3116 14.8987 22.5C14.8987 19.6884 16.0156 16.9919 18.0037 15.0037ZM38.4525 13.4775C38.6964 13.2474 38.8917 12.9707 39.0268 12.6637C39.1619 12.3568 39.234 12.0258 39.2389 11.6905C39.2438 11.3552 39.1814 11.0223 39.0553 10.7115C38.9292 10.4008 38.7421 10.1185 38.5049 9.88132C38.2678 9.64419 37.9855 9.45705 37.6747 9.33097C37.364 9.2049 37.0311 9.14245 36.6958 9.14734C36.3604 9.15223 36.0295 9.22435 35.7225 9.35943C35.4156 9.49451 35.1389 9.6898 34.9087 9.93375C34.4612 10.4082 34.2162 11.0384 34.2257 11.6905C34.2352 12.3426 34.4985 12.9654 34.9597 13.4266C35.4209 13.8878 36.0436 14.1511 36.6958 14.1606C37.3479 14.1701 37.9781 13.925 38.4525 13.4775Z" fill="#D9D6CB"/>
</g>
<defs>
<filter id="filter0_d_204_359" x="-1" y="0" width="53" height="53" filterUnits="userSpaceOnUse" color-interpolation-filters="sRGB">
<feFlood flood-opacity="0" result="BackgroundImageFix"/>
<feColorMatrix in="SourceAlpha" type="matrix" values="0 0 0 0 0 0 0 0 0 0 0 0 0 0 0 0 0 0 127 0" result="hardAlpha"/>
<feOffset dy="4"/>
<feGaussianBlur stdDeviation="2"/>
<feComposite in2="hardAlpha" operator="out"/>
<feColorMatrix type="matrix" values="0 0 0 0 0 0 0 0 0 0 0 0 0 0 0 0 0 0 0.25 0"/>
<feBlend mode="normal" in2="BackgroundImageFix" result="effect1_dropShadow_204_359"/>
<feBlend mode="normal" in="SourceGraphic" in2="effect1_dropShadow_204_359" result="shape"/>
</filter>
</defs>
</svg>
