<svg width="60" height="60" viewBox="0 0 60 60" fill="none" xmlns="http://www.w3.org/2000/svg">
<path d="M41.18 50H10.25C9.85218 50 9.47064 49.842 9.18934 49.5607C8.90804 49.2794 8.75 48.8978 8.75 48.5V24C8.75 23.6022 8.90804 23.2207 9.18934 22.9394C9.47064 22.6581 9.85218 22.5 10.25 22.5H17.17C18.0334 22.5 18.8821 22.2764 19.6335 21.851C20.3849 21.4256 21.0133 20.8129 21.4575 20.0725L28.2325 8.78002C28.7435 7.92715 29.5484 7.29035 30.496 6.9894C31.4436 6.68844 32.4685 6.74406 33.3779 7.1458C34.2873 7.54754 35.0187 8.26771 35.4343 9.17087C35.85 10.074 35.9214 11.0979 35.635 12.05L33.08 20.57C33.013 20.7938 32.9993 21.0301 33.0398 21.2601C33.0803 21.4902 33.1739 21.7076 33.3133 21.895C33.4527 22.0825 33.6339 22.2348 33.8425 22.3398C34.0512 22.4448 34.2814 22.4997 34.515 22.5H45.9525C46.7214 22.4999 47.4799 22.677 48.1691 23.0177C48.8584 23.3584 49.4598 23.8535 49.9266 24.4644C50.3933 25.0753 50.713 25.7857 50.8605 26.5402C51.0081 27.2948 50.9797 28.0732 50.7775 28.815L46.0025 46.315C45.7142 47.3727 45.0862 48.3063 44.2153 48.9722C43.3444 49.638 42.2788 49.9991 41.1825 50H41.18Z" stroke="#D9D6CB" stroke-width="3.125" stroke-linecap="round"/>
<path d="M17.5 50V22.5" stroke="#D9D6CB" stroke-width="3.125" stroke-linecap="round" stroke-linejoin="round"/>
</svg>
