<svg width="40" height="40" viewBox="0 0 40 40" fill="none" xmlns="http://www.w3.org/2000/svg">
<path d="M27.454 33.3334H6.83398C6.56877 33.3334 6.31441 33.228 6.12688 33.0405C5.93934 32.853 5.83398 32.5986 5.83398 32.3334V16.0001C5.83398 15.7348 5.93934 15.4805 6.12688 15.2929C6.31441 15.1054 6.56877 15.0001 6.83398 15.0001H11.4473C12.0229 15.0001 12.5888 14.851 13.0897 14.5674C13.5906 14.2838 14.0095 13.8753 14.3057 13.3817L18.8223 5.85339C19.163 5.28481 19.6996 4.86028 20.3313 4.65964C20.963 4.459 21.6463 4.49608 22.2526 4.76391C22.8589 5.03173 23.3464 5.51185 23.6235 6.11395C23.9006 6.71606 23.9482 7.39866 23.7573 8.03339L22.054 13.7134C22.0093 13.8626 22.0002 14.0201 22.0272 14.1735C22.0542 14.3268 22.1166 14.4718 22.2095 14.5967C22.3024 14.7217 22.4232 14.8232 22.5623 14.8932C22.7014 14.9633 22.8549 14.9998 23.0107 15.0001H30.6357C31.1482 14.9999 31.6539 15.1181 32.1134 15.3452C32.5729 15.5723 32.9738 15.9023 33.285 16.3096C33.5962 16.7169 33.8093 17.1905 33.9077 17.6935C34.0061 18.1966 33.9871 18.7155 33.8523 19.2101L30.669 30.8767C30.4768 31.5818 30.0581 32.2043 29.4775 32.6481C28.8969 33.092 28.1865 33.3328 27.4557 33.3334H27.454Z" stroke="#D9D6CB" stroke-width="3.125" stroke-linecap="round"/>
<path d="M11.668 33.3333V15" stroke="#D9D6CB" stroke-width="3.125" stroke-linecap="round" stroke-linejoin="round"/>
</svg>
