<svg width="53" height="53" viewBox="0 0 53 53" fill="none" xmlns="http://www.w3.org/2000/svg">
<g filter="url(#filter0_d_204_386)">
<path d="M48.9979 22.4469C48.9979 23.4729 48.7509 24.406 48.2571 25.2462C47.7633 26.0864 47.0979 26.7276 46.2609 27.1698C46.4618 27.9835 46.5623 28.8326 46.5623 29.717C46.5623 32.4587 45.6709 34.9971 43.8881 37.332C42.1054 39.6669 39.6739 41.5109 36.5939 42.8641C33.5138 44.2173 30.1659 44.8939 26.5501 44.8939C22.9344 44.8939 19.5907 44.2173 16.519 42.8641C13.4472 41.5109 11.02 39.6669 9.23725 37.332C7.45448 34.9971 6.5631 32.4587 6.5631 29.717C6.5631 28.8856 6.65517 28.0542 6.83931 27.2229C5.98559 26.7807 5.29927 26.1306 4.78034 25.2727C4.26142 24.4148 4.00195 23.4729 4.00195 22.4469C4.00195 20.9965 4.4874 19.7538 5.45829 18.719C6.42919 17.6843 7.60933 17.1669 8.99871 17.1669C10.4216 17.1669 11.6352 17.7241 12.6396 18.8384C16.2888 16.1498 20.5992 14.717 25.5709 14.5401L28.4835 0.716392C28.5338 0.486439 28.6593 0.300708 28.8602 0.159198C29.0611 0.0176887 29.2787 -0.026533 29.513 0.026533L38.7784 2.17571C39.0797 1.52123 39.5316 0.994988 40.1343 0.596993C40.7369 0.198998 41.3981 0 42.1179 0C43.1558 0 44.043 0.384729 44.7795 1.15419C45.516 1.92364 45.8843 2.85672 45.8843 3.95342C45.8843 5.05012 45.516 5.98762 44.7795 6.76592C44.043 7.54422 43.1558 7.93337 42.1179 7.93337C41.0801 7.93337 40.197 7.54864 39.4689 6.77919C38.7407 6.00973 38.3766 5.07665 38.3766 3.97995L29.9901 2.01651L27.3787 14.5401C32.4006 14.6993 36.7445 16.1144 40.4105 18.7854C41.3814 17.7064 42.5782 17.1669 44.0011 17.1669C45.3905 17.1669 46.5706 17.6843 47.5415 18.719C48.5124 19.7538 48.9979 20.9965 48.9979 22.4469ZM14.4977 27.727C14.4977 28.8237 14.8617 29.7612 15.5899 30.5395C16.3181 31.3178 17.2011 31.707 18.2389 31.707C19.2768 31.707 20.164 31.3178 20.9005 30.5395C21.6371 29.7612 22.0053 28.8237 22.0053 27.727C22.0053 26.6303 21.6371 25.6972 20.9005 24.9278C20.164 24.1583 19.2768 23.7736 18.2389 23.7736C17.2178 23.7736 16.339 24.1627 15.6025 24.941C14.8659 25.7193 14.4977 26.648 14.4977 27.727ZM34.8362 37.1462C35.0203 36.9517 35.1124 36.7217 35.1124 36.4564C35.1124 36.191 35.0203 35.9611 34.8362 35.7665C34.6688 35.5896 34.4596 35.5012 34.2085 35.5012C33.9574 35.5012 33.7398 35.5896 33.5556 35.7665C32.8693 36.5094 31.8566 37.0578 30.5174 37.4116C29.1782 37.7653 27.8391 37.9422 26.4999 37.9422C25.1607 37.9422 23.8216 37.7653 22.4824 37.4116C21.1433 37.0578 20.1305 36.5094 19.4442 35.7665C19.2601 35.5896 19.0424 35.5012 18.7913 35.5012C18.5403 35.5012 18.331 35.5896 18.1636 35.7665C17.9795 35.9434 17.8874 36.1689 17.8874 36.4431C17.8874 36.7173 17.9795 36.9517 18.1636 37.1462C18.8834 37.9068 19.8752 38.5083 21.1391 38.9505C22.4029 39.3927 23.4282 39.6536 24.215 39.7332C25.0017 39.8128 25.7634 39.8526 26.4999 39.8526C27.2364 39.8526 27.9981 39.8128 28.7849 39.7332C29.5716 39.6536 30.5969 39.3927 31.8607 38.9505C33.1246 38.5083 34.1164 37.9068 34.8362 37.1462ZM34.7609 31.707C35.7987 31.707 36.6817 31.3178 37.4099 30.5395C38.1381 29.7612 38.5022 28.8237 38.5022 27.727C38.5022 26.648 38.1339 25.7193 37.3974 24.941C36.6608 24.1627 35.782 23.7736 34.7609 23.7736C33.723 23.7736 32.8358 24.1583 32.0993 24.9278C31.3627 25.6972 30.9945 26.6303 30.9945 27.727C30.9945 28.8237 31.3627 29.7612 32.0993 30.5395C32.8358 31.3178 33.723 31.707 34.7609 31.707Z" fill="#D9D6CB"/>
</g>
<defs>
<filter id="filter0_d_204_386" x="0" y="0" width="53" height="53" filterUnits="userSpaceOnUse" color-interpolation-filters="sRGB">
<feFlood flood-opacity="0" result="BackgroundImageFix"/>
<feColorMatrix in="SourceAlpha" type="matrix" values="0 0 0 0 0 0 0 0 0 0 0 0 0 0 0 0 0 0 127 0" result="hardAlpha"/>
<feOffset dy="4"/>
<feGaussianBlur stdDeviation="2"/>
<feComposite in2="hardAlpha" operator="out"/>
<feColorMatrix type="matrix" values="0 0 0 0 0 0 0 0 0 0 0 0 0 0 0 0 0 0 0.25 0"/>
<feBlend mode="normal" in2="BackgroundImageFix" result="effect1_dropShadow_204_386"/>
<feBlend mode="normal" in="SourceGraphic" in2="effect1_dropShadow_204_386" result="shape"/>
</filter>
</defs>
</svg>
