<svg id="Capa_1" enable-background="new 0 0 512 512" height="512" viewBox="0 0 512 512" width="512" xmlns="http://www.w3.org/2000/svg"><g><g><path d="m508.95 231.278h-98.8c-34.5 0-65.44-21.84-76.99-54.34l-32.41-91.19h-300.75v215.33h459.45c18.04 0 34.58-9.08 44.27-24.3 8.73-13.72 10.55-30.38 5.23-45.5zm-294.92-25c0 13.79-11.22 25-25 25h-125.44c-13.78 0-25-11.21-25-25v-52.76c0-13.79 11.22-25 25-25h125.44c13.78 0 25 11.21 25 25z"/><path d="m68.593 158.514h115.433v42.765h-115.433z"/><path d="m410.151 201.279h85.089l-39.871-85.283c-8.59-18.375-27.248-30.248-47.531-30.248h-75.25l28.84 81.14c7.312 20.571 26.892 34.391 48.723 34.391z"/></g><path d="m487 331.252c-13.03 0-448.97 0-462 0-13.79 0-25 11.21-25 25v45c0 13.79 11.21 25 25 25h462c13.79 0 25-11.21 25-25v-45c0-13.79-11.21-25-25-25zm-335.29 65h-121.71v-35h121.71zm178.58 0c-10.041 0-138.538 0-148.58 0v-35h148.58zm151.71 0h-121.71v-35h121.71z"/></g></svg>