<?xml version="1.0" standalone="no"?>
<!DOCTYPE svg PUBLIC "-//W3C//DTD SVG 20010904//EN"
 "http://www.w3.org/TR/2001/REC-SVG-20010904/DTD/svg10.dtd">
<svg version="1.0" xmlns="http://www.w3.org/2000/svg"
 width="3272.000000pt" height="691.000000pt" viewBox="0 0 3272.000000 691.000000"
 preserveAspectRatio="xMidYMid meet">

<g transform="translate(0.000000,691.000000) scale(0.100000,-0.100000)"
fill="#000000" stroke="none">
<path d="M13115 6900 l-289 -5 -188 -610 c-103 -335 -187 -613 -188 -617 0 -5
105 -8 234 -8 l235 0 26 85 26 85 216 -2 216 -3 26 -75 c14 -42 30 -81 34 -88
6 -9 62 -10 230 -5 122 3 223 7 224 8 2 1 -6 28 -17 61 -10 32 -96 307 -191
609 -94 303 -176 556 -181 563 -7 7 -31 11 -67 10 -31 -2 -186 -5 -346 -8z
m174 -702 c1 -16 -10 -18 -99 -18 -55 0 -100 2 -100 4 0 9 92 302 98 311 6 10
100 -265 101 -297z"/>
<path d="M15998 6903 c-27 -2 -48 -5 -48 -6 0 -1 87 -279 193 -617 l193 -615
215 -3 214 -2 73 226 c40 124 76 223 79 220 4 -3 36 -104 73 -223 l67 -218
218 0 218 0 189 614 c104 337 186 616 183 619 -6 6 -466 4 -472 -2 -2 -2 -25
-72 -50 -155 -25 -84 -49 -148 -53 -144 -4 4 -29 73 -55 153 -26 80 -51 148
-54 153 -4 4 -123 4 -265 0 l-259 -8 -43 -149 c-24 -81 -45 -150 -47 -152 -6
-6 -20 31 -67 184 l-41 132 -207 -2 c-114 -1 -228 -3 -254 -5z"/>
<path d="M18159 6903 l-75 -4 -187 -610 c-103 -336 -184 -615 -181 -620 3 -5
108 -9 233 -9 l228 0 25 83 24 82 218 0 218 0 26 -82 c18 -61 30 -83 45 -87
35 -9 437 6 437 17 0 5 -18 66 -39 136 -249 797 -335 1069 -342 1084 -9 16
-32 17 -282 15 -150 -1 -306 -4 -348 -5z m345 -566 c25 -81 46 -150 46 -152 0
-3 -45 -5 -100 -5 -65 0 -100 4 -100 11 0 26 95 308 101 302 4 -5 28 -74 53
-156z"/>
<path d="M19320 6286 l0 -626 250 0 250 0 2 170 3 169 150 -140 c83 -78 173
-153 200 -167 l50 -27 586 -3 586 -4 62 32 c162 81 246 236 221 409 -13 93
-48 156 -153 276 -66 75 -92 112 -84 117 7 4 146 8 310 8 l297 0 0 206 0 205
-297 -2 c-164 -2 -366 -6 -449 -9 -150 -6 -153 -6 -227 -43 -79 -39 -127 -84
-173 -163 -27 -46 -29 -56 -29 -159 0 -100 3 -115 27 -166 16 -31 66 -101 113
-155 l84 -99 -32 -8 c-17 -5 -170 -7 -339 -5 -336 3 -363 8 -303 51 68 49 136
123 162 176 25 51 28 66 28 166 0 105 -2 114 -33 177 -52 105 -170 194 -289
217 -27 6 -256 13 -510 16 l-463 6 0 -625z m831 235 c24 -30 24 -76 0 -100
-14 -14 -41 -19 -133 -25 -64 -4 -132 -4 -152 -1 l-36 7 0 75 0 75 151 -4
c144 -4 153 -5 170 -27z"/>
<path d="M10713 6869 c-90 -43 -164 -115 -199 -191 -24 -54 -28 -75 -28 -149
0 -80 3 -93 36 -160 23 -45 68 -109 117 -164 l79 -90 -486 -6 c-268 -3 -2677
-7 -5354 -8 l-4868 -1 0 -220 0 -220 5505 0 5506 0 61 31 c78 39 152 114 186
187 24 51 27 69 27 167 0 102 -2 114 -29 167 -16 31 -71 105 -123 164 -70 79
-91 109 -81 115 7 5 138 9 291 9 l277 0 0 -420 0 -420 225 0 225 0 0 413 0
414 98 6 c53 4 177 7 275 7 l177 0 0 200 0 200 -927 -1 -928 0 -62 -30z"/>
<path d="M14000 6282 c0 -527 2 -621 14 -625 8 -3 121 -3 250 0 l236 6 0 164
c0 118 3 163 12 163 6 0 73 -60 147 -134 75 -73 155 -143 178 -154 71 -37 157
-43 553 -40 l375 3 0 215 0 215 -332 5 c-362 5 -388 10 -328 53 70 50 144 131
167 180 20 45 23 67 23 167 0 106 -2 119 -29 169 -41 79 -113 146 -204 189
l-77 37 -492 3 -493 3 0 -619z m817 250 c40 -22 43 -101 5 -121 -9 -5 -83 -12
-165 -16 l-147 -8 0 83 0 82 143 -4 c87 -2 151 -9 164 -16z"/>
<path d="M21790 6037 c0 -121 -42 -229 -127 -326 l-45 -51 5551 0 5551 0 0
220 0 220 -5465 0 -5465 0 0 -63z"/>
<path d="M4844 4973 c-10 -38 5 -536 15 -546 5 -5 21 -7 35 -3 20 5 34 23 60
79 47 98 91 156 131 173 48 20 211 32 531 40 l275 7 -6 -1044 c-6 -1049 -15
-1424 -36 -1511 -24 -104 -67 -134 -212 -145 -71 -6 -80 -8 -88 -30 -5 -14 -7
-29 -3 -34 3 -5 245 -9 585 -9 l580 0 -3 32 -3 33 -88 8 c-155 14 -192 39
-217 150 -19 83 -29 601 -29 1610 l-1 937 113 0 c192 -1 579 -19 637 -31 71
-15 116 -60 170 -174 32 -66 46 -86 66 -91 14 -4 30 -2 36 4 7 7 13 109 16
292 l5 280 -22 0 c-11 0 -54 -9 -94 -20 -115 -32 -350 -40 -1172 -40 -826 0
-1067 9 -1167 40 -87 27 -106 26 -114 -7z"/>
<path d="M7533 4788 c4 -116 7 -246 7 -290 l0 -78 28 0 c38 0 45 7 80 82 45
97 89 158 128 174 46 19 213 32 529 40 l271 7 -3 -1069 c-5 -1396 -11 -1513
-82 -1584 -28 -28 -114 -50 -197 -50 -45 0 -64 -14 -64 -47 l0 -23 586 0 585
0 -3 33 -3 32 -88 7 c-173 15 -208 52 -227 238 -6 62 -13 583 -17 1284 l-6
1179 264 -7 c325 -8 502 -22 540 -41 38 -20 76 -72 124 -169 37 -74 43 -81 73
-84 20 -2 34 2 37 10 2 7 6 138 7 291 l3 277 -22 0 c-13 0 -56 -9 -96 -20
-115 -32 -350 -40 -1167 -40 -821 0 -1054 8 -1170 39 -41 11 -86 21 -99 21
l-24 0 6 -212z"/>
<path d="M26457 4764 c2 -132 6 -263 9 -292 5 -52 6 -53 36 -50 34 3 33 2 79
100 37 78 79 133 120 153 37 20 201 32 532 41 l267 7 0 -924 c-1 -1013 -11
-1529 -34 -1623 -26 -110 -71 -142 -212 -154 l-89 -7 -3 -32 -3 -33 585 0 586
0 0 30 c0 34 2 33 -133 48 -99 11 -132 27 -159 83 -42 85 -42 86 -51 2002 l-3
607 111 0 c168 0 573 -19 635 -30 73 -13 119 -59 173 -170 45 -94 50 -100 90
-100 l27 0 0 193 c0 105 3 237 7 291 l6 99 -44 -6 c-24 -3 -69 -13 -99 -22
-93 -26 -366 -35 -1145 -35 -785 0 -1063 9 -1155 35 -30 9 -74 18 -96 22 l-41
5 4 -238z"/>
<path d="M3606 4965 c-27 -29 -44 -70 -463 -1100 -706 -1738 -668 -1648 -745
-1731 -64 -68 -118 -95 -213 -108 -79 -11 -85 -14 -85 -47 l0 -29 455 0 455 0
0 23 c0 34 -19 47 -70 47 -25 0 -64 9 -86 19 -73 33 -79 99 -27 266 30 97 231
615 245 633 8 9 108 12 437 12 234 0 443 -3 463 -6 l38 -7 89 -226 c49 -124
113 -287 141 -361 116 -302 117 -308 65 -323 -50 -15 -60 -23 -63 -51 l-3 -26
500 0 501 0 0 30 c0 33 3 31 -114 50 -89 14 -124 29 -175 75 -124 113 -140
147 -711 1550 -420 1032 -419 1029 -477 1165 -72 167 -107 199 -157 145z m48
-1061 c134 -356 256 -702 256 -723 0 -16 -14 -19 -112 -24 -250 -15 -628 -3
-628 20 0 25 267 741 351 941 13 31 26 49 31 44 5 -5 51 -121 102 -258z"/>
<path d="M21110 4979 c-722 -81 -1222 -526 -1371 -1219 -20 -90 -23 -135 -24
-315 0 -179 3 -226 22 -321 175 -860 876 -1324 1833 -1213 252 29 544 146 746
297 362 271 573 674 615 1171 13 151 1 338 -31 489 -106 505 -432 866 -925
1025 -257 83 -595 116 -865 86z m393 -217 c445 -120 767 -529 854 -1086 24
-153 24 -497 0 -654 -67 -431 -232 -703 -512 -841 -143 -70 -174 -76 -405 -76
-194 1 -210 2 -295 28 -472 145 -781 549 -871 1142 -22 148 -22 450 0 600 67
444 258 727 576 854 130 52 195 61 395 57 143 -3 196 -8 258 -24z"/>
<path d="M14365 4957 c-20 -7 -303 -12 -892 -14 l-863 -4 0 -38 0 -38 82 -7
c132 -11 203 -56 228 -144 14 -50 14 -2274 0 -2432 -17 -188 -51 -238 -175
-255 -80 -11 -85 -13 -85 -46 l0 -30 884 3 c847 3 885 4 905 22 11 10 25 32
30 50 16 48 50 301 58 420 l6 108 -34 -4 c-33 -3 -34 -5 -56 -83 -46 -159
-111 -249 -202 -280 -148 -49 -554 -46 -670 6 -90 40 -117 87 -131 227 -11
114 -13 476 -3 795 l6 227 156 -1 c260 0 471 -14 516 -33 81 -34 120 -97 131
-208 8 -72 17 -88 49 -88 17 0 25 7 29 28 7 34 46 522 46 580 0 55 -21 56 -86
2 -27 -22 -65 -45 -84 -51 -22 -7 -175 -13 -397 -16 l-363 -5 0 538 0 537 269
-6 c320 -8 406 -18 481 -55 69 -34 97 -81 114 -190 15 -93 20 -102 51 -102 28
0 26 -11 55 301 26 285 26 299 -2 298 -13 0 -36 -6 -53 -12z"/>
<path d="M16705 4957 c-20 -7 -317 -12 -925 -16 l-895 -6 0 -35 0 -35 71 -6
c88 -8 139 -24 183 -57 71 -53 66 39 66 -1317 0 -1113 -2 -1226 -17 -1294 -27
-116 -53 -144 -154 -161 -85 -15 -104 -25 -104 -55 l0 -25 581 0 580 0 -3 32
-3 32 -108 12 c-132 15 -173 34 -204 95 -40 80 -47 186 -48 769 l0 545 315 0
315 0 56 -26 c87 -41 111 -84 145 -256 3 -18 11 -23 34 -23 23 0 31 5 35 23
10 46 55 588 50 597 -11 18 -31 10 -94 -36 -58 -44 -67 -47 -150 -55 -48 -5
-227 -8 -397 -7 l-309 3 -3 505 c-1 278 0 515 3 527 8 32 60 35 405 24 327
-11 373 -18 435 -66 48 -36 64 -71 79 -173 12 -86 12 -87 41 -87 37 0 39 9 59
235 31 351 31 350 10 349 -11 0 -32 -6 -49 -12z"/>
<path d="M10 4901 l0 -38 80 -7 c56 -5 94 -15 131 -34 77 -40 92 -74 100 -237
11 -203 10 -1948 -1 -2161 -17 -334 -35 -374 -177 -395 -114 -16 -113 -16
-113 -49 l0 -30 593 0 c325 0 642 5 702 10 427 38 748 276 847 627 17 63 22
104 22 213 0 126 -2 141 -33 230 -86 251 -292 456 -591 586 -36 15 -67 29 -69
31 -3 2 47 56 111 121 125 127 165 180 208 276 54 118 75 295 49 418 -47 224
-255 396 -544 448 -108 19 -403 30 -862 30 l-453 0 0 -39z m1144 -174 c207
-98 334 -366 305 -647 -11 -112 -32 -177 -80 -250 -48 -71 -113 -123 -179
-142 -62 -18 -354 -18 -372 0 -10 10 -14 111 -16 465 -2 249 0 485 3 524 7 71
8 73 38 83 18 5 76 8 130 6 86 -4 106 -8 171 -39z m5 -1252 c93 -23 176 -70
260 -150 154 -146 238 -307 276 -529 40 -234 1 -418 -116 -541 -98 -104 -208
-140 -404 -133 -198 8 -314 62 -345 163 -14 45 -28 1090 -15 1172 l7 46 136
-6 c75 -3 166 -13 201 -22z"/>
<path d="M10410 4900 l0 -40 43 0 c54 0 143 -26 181 -53 16 -11 38 -41 49 -66
19 -43 21 -76 29 -491 11 -493 -5 -1921 -22 -2028 -10 -66 -37 -129 -66 -152
-9 -8 -53 -22 -98 -31 l-81 -16 -3 -37 -3 -37 925 3 926 3 25 26 c33 32 49 95
75 288 30 231 28 260 -24 247 -16 -4 -26 -18 -35 -48 -18 -58 -64 -148 -96
-186 -14 -17 -54 -45 -88 -62 -81 -40 -227 -55 -462 -46 -199 6 -260 16 -335
54 -47 23 -59 35 -83 83 -44 88 -48 223 -45 1379 l3 1025 25 44 c38 67 63 81
173 94 l97 11 0 38 0 38 -555 0 -555 0 0 -40z"/>
<path d="M22930 4896 l0 -44 48 -6 c233 -32 318 -108 352 -318 13 -80 13 -446
0 -1263 -11 -707 -24 -1050 -40 -1106 -27 -96 -71 -123 -225 -137 l-80 -7 -3
-32 -3 -33 531 0 531 0 -3 32 -3 33 -115 11 c-147 15 -184 32 -223 109 -42 84
-51 209 -77 1140 -22 813 -23 848 -12 844 6 -2 96 -94 199 -204 448 -477 1879
-1914 1977 -1986 44 -32 77 -37 97 -13 18 22 25 240 44 1374 17 1026 28 1373
46 1435 6 22 28 56 48 76 41 41 102 59 201 59 l60 0 0 40 0 40 -507 -2 -508
-3 0 -35 0 -35 87 -7 c106 -8 154 -22 192 -57 54 -49 65 -92 76 -293 18 -340
49 -1798 38 -1798 -3 0 -123 123 -269 273 -145 149 -549 565 -899 922 -350
358 -719 737 -821 843 l-184 192 -277 0 -278 0 0 -44z"/>
<path d="M30200 4901 l0 -38 71 -7 c109 -10 169 -42 207 -111 16 -27 17 -138
20 -1260 2 -676 0 -1253 -3 -1282 -12 -97 -71 -153 -182 -172 -118 -21 -113
-19 -113 -51 l0 -30 555 0 555 0 0 30 c0 32 5 30 -105 51 -74 14 -105 30 -138
68 -53 64 -51 15 -52 1336 0 978 3 1239 13 1273 27 89 98 138 218 149 l64 6 0
38 0 39 -555 0 -555 0 0 -39z"/>
<path d="M31604 4926 c-3 -8 -4 -25 -2 -37 3 -21 11 -24 83 -34 44 -7 94 -19
111 -28 43 -22 81 -70 94 -117 7 -26 10 -441 8 -1292 -3 -1144 -4 -1256 -20
-1283 -35 -64 -95 -98 -201 -111 -61 -8 -77 -18 -77 -50 l0 -24 560 0 560 0 0
24 c0 32 -16 42 -75 50 -136 17 -199 65 -215 162 -14 83 -13 2477 0 2526 13
46 52 93 94 115 17 9 67 21 111 28 l80 11 0 35 0 34 -553 3 c-473 2 -553 0
-558 -12z"/>
<path d="M17232 4923 l-133 -4 3 -26 c3 -26 6 -28 93 -38 110 -14 159 -36 193
-88 23 -35 27 -52 35 -180 12 -198 2 -2231 -11 -2329 -24 -169 -49 -208 -148
-227 -109 -22 -104 -19 -104 -51 l0 -30 556 0 555 0 -3 32 -3 33 -103 12
c-112 13 -165 33 -195 75 -43 58 -49 127 -54 617 l-5 464 203 -7 204 -7 32
-32 c17 -18 120 -156 229 -307 385 -538 502 -676 664 -783 122 -81 222 -97
608 -97 l263 0 -3 32 c-3 31 -6 33 -51 40 -66 9 -181 45 -237 73 -117 59 -257
189 -455 420 -182 212 -655 802 -655 817 0 3 54 59 121 125 248 242 356 434
378 668 12 125 -2 249 -39 341 -97 242 -268 372 -580 441 -64 13 -160 16 -650
18 -316 1 -635 0 -708 -2z m1058 -198 c90 -24 178 -73 248 -140 122 -115 185
-256 202 -452 34 -387 -103 -688 -342 -749 -50 -13 -94 -15 -213 -11 -156 5
-240 22 -266 54 -19 22 -18 1266 1 1288 16 19 37 22 185 24 86 0 149 -4 185
-14z"/>
<path d="M10 1005 l0 -225 7363 2 7362 3 132 210 c73 116 132 216 133 223 0 9
-1505 12 -7495 12 l-7495 0 0 -225z"/>
<path d="M15678 1123 c-37 -60 -70 -116 -74 -126 -6 -16 20 -17 496 -15 l503
3 73 118 c41 66 74 121 74 123 0 2 -226 4 -503 4 l-502 0 -67 -107z"/>
<path d="M18217 1220 l-488 -5 134 -215 133 -215 7356 -3 7355 -2 8 214 c4
118 4 220 0 225 -6 11 -13472 12 -14498 1z"/>
<path d="M16807 998 c-74 -117 -209 -333 -301 -481 l-167 -267 -340 0 c-186 0
-339 4 -339 8 0 5 30 58 68 118 l67 109 238 5 238 5 75 120 74 120 -482 3
c-266 1 -488 0 -494 -2 -10 -4 -154 -228 -154 -240 0 -3 42 -6 93 -6 50 0 97
-4 103 -8 7 -4 -40 -89 -132 -237 -79 -126 -144 -233 -144 -237 0 -5 285 -8
633 -8 l632 0 94 153 c163 262 353 561 369 580 15 16 20 12 72 -70 31 -48 67
-105 79 -125 l22 -37 -69 -6 -69 -7 -71 -117 -72 -116 42 -7 c24 -3 125 -7
224 -7 l181 -1 74 -120 73 -120 143 0 c79 0 143 3 143 6 0 6 -396 642 -617
992 -74 116 -139 212 -143 212 -4 0 -69 -96 -143 -212z"/>
</g>
</svg>
